# MagicaVoxel @ Ephtracy

# group
o 

# material
mtllib vrwrfe-2.mtl
usemtl palette

# normals
vn -1 0 0
vn 1 0 0
vn 0 0 1
vn 0 0 -1
vn 0 -1 0
vn 0 1 0

# texcoords
vt 0.751953 0.5
vt 0.755859 0.5
vt 0.759766 0.5
vt 0.763672 0.5
vt 0.767578 0.5
vt 0.771484 0.5
vt 0.775391 0.5
vt 0.779297 0.5
vt 0.880859 0.5

# verts
v -1 3.8 2.4
v -1 3.8 0.6
v -1 4 2.4
v -1 4 0.6
v -1 4.1 2.3
v -1 4.1 2.1
v -1 4.1 1.7
v -1 4.1 1.2
v -1 4.1 0.9
v -1 4.1 0.7
v -1 4.3 1.7
v -1 4.3 1.2
v -1 4.4 2.3
v -1 4.4 2.1
v -1 4.4 0.9
v -1 4.4 0.7
v -0.9 3.7 2.4
v -0.9 3.7 0.6
v -0.9 3.8 2.5
v -0.9 3.8 2.4
v -0.9 3.8 0.6
v -0.9 3.8 0.5
v -0.9 4 2.5
v -0.9 4 2.4
v -0.9 4 0.6
v -0.9 4 0.5
v -0.9 4.1 2.4
v -0.9 4.1 2.3
v -0.9 4.1 2.1
v -0.9 4.1 1.7
v -0.9 4.1 1.2
v -0.9 4.1 0.9
v -0.9 4.1 0.7
v -0.9 4.1 0.6
v -0.9 4.3 1.7
v -0.9 4.3 1.2
v -0.9 4.4 2.4
v -0.9 4.4 2.3
v -0.9 4.4 2.1
v -0.9 4.4 0.9
v -0.9 4.4 0.7
v -0.9 4.4 0.6
v -0.9 4.5 2.3
v -0.9 4.5 0.7
v -0.8 4.4 2.4
v -0.8 4.4 2.3
v -0.8 4.4 0.7
v -0.8 4.4 0.6
v -0.8 4.5 2.4
v -0.8 4.5 2.3
v -0.8 4.5 0.7
v -0.8 4.5 0.6
v -0.8 4.6 2.3
v -0.8 4.6 0.7
v -0.0999999 4.6 2.3
v -0.0999999 4.6 0.7
v -0.0999999 4.7 2.3
v -0.0999999 4.7 0.7
v 1.19209e-07 4.7 2.3
v 1.19209e-07 4.7 2.2
v 1.19209e-07 4.7 0.8
v 1.19209e-07 4.7 0.7
v 1.19209e-07 4.8 2.3
v 1.19209e-07 4.8 2.2
v 1.19209e-07 4.8 0.8
v 1.19209e-07 4.8 0.7
v 1.19209e-07 4.9 2.2
v 1.19209e-07 4.9 0.8
v 0.1 4 2.4
v 0.1 4 2.3
v 0.1 4.1 2.4
v 0.1 4.1 2.3
v 0.1 4.8 2.3
v 0.1 4.8 2.2
v 0.1 4.8 0.8
v 0.1 4.8 0.7
v 0.1 4.9 2.3
v 0.1 4.9 2.2
v 0.1 4.9 0.8
v 0.1 4.9 0.7
v 0.1 5 2.2
v 0.1 5 0.8
v 0.2 3.7 2.4
v 0.2 3.7 2.3
v 0.2 4 2.4
v 0.2 4 2.3
v 0.2 4 0.7
v 0.2 4 0.6
v 0.2 4.1 0.7
v 0.2 4.1 0.6
v 0.2 4.9 2.3
v 0.2 4.9 2.2
v 0.2 4.9 0.8
v 0.2 4.9 0.7
v 0.2 5 2.3
v 0.2 5 2.2
v 0.2 5 0.8
v 0.2 5 0.7
v 0.2 5.1 2.2
v 0.2 5.1 0.8
v 0.3 3.7 0.7
v 0.3 3.7 0.6
v 0.3 4 0.7
v 0.3 4 0.6
v 0.3 5 2.3
v 0.3 5 2.2
v 0.3 5 0.8
v 0.3 5 0.7
v 0.3 5.1 2.3
v 0.3 5.1 2.2
v 0.3 5.1 0.8
v 0.3 5.1 0.7
v 0.3 5.2 2.2
v 0.3 5.2 0.8
v 1.7 4.9 2.2
v 1.7 4.9 0.8
v 1.7 5 2.2
v 1.7 5 0.8
v 1.8 4.5 2.5
v 1.8 4.5 2.4
v 1.8 4.5 2.3
v 1.8 4.5 0.7
v 1.8 4.5 0.6
v 1.8 4.5 0.5
v 1.8 4.6 1.2
v 1.8 4.6 1.1
v 1.8 4.7 2.5
v 1.8 4.7 2.3
v 1.8 4.7 2.2
v 1.8 4.7 1.2
v 1.8 4.7 1.1
v 1.8 4.7 0.8
v 1.8 4.7 0.7
v 1.8 4.7 0.5
v 1.8 4.9 2.2
v 1.8 4.9 0.8
v 1.9 4.6 2.2
v 1.9 4.6 1.2
v 1.9 4.6 1.1
v 1.9 4.6 0.8
v 1.9 4.7 2.2
v 1.9 4.7 1.2
v 1.9 4.7 1.1
v 1.9 4.7 0.8
v 2 4.5 2.2
v 2 4.5 0.8
v 2 4.6 2.2
v 2 4.6 0.8
v 2.6 4 2.4
v 2.6 4 2.3
v 2.6 4 0.7
v 2.6 4 0.6
v 2.6 4.1 2.4
v 2.6 4.1 2.3
v 2.6 4.1 0.7
v 2.6 4.1 0.6
v 2.7 3.7 2.4
v 2.7 3.7 2.3
v 2.7 3.7 0.7
v 2.7 3.7 0.6
v 2.7 3.8 2.4
v 2.7 3.8 2.3
v 2.7 3.8 0.7
v 2.7 3.8 0.6
v 2.7 4 2.4
v 2.7 4 2.3
v 2.7 4 0.7
v 2.7 4 0.6
v 3 3.7 2.3
v 3 3.7 0.7
v 3 3.8 2.5
v 3 3.8 2.4
v 3 3.8 2.3
v 3 3.8 0.7
v 3 3.8 0.6
v 3 3.8 0.5
v 3 4 2.5
v 3 4 2.4
v 3 4 0.6
v 3 4 0.5
v 3 4.5 2.3
v 3 4.5 0.7
v -0.8 3.7 2.3
v -0.8 3.7 0.7
v -0.8 3.8 2.3
v -0.8 3.8 0.7
v -0.8 4.1 2.2
v -0.8 4.1 2.1
v -0.8 4.2 2.2
v -0.8 4.2 2.1
v -0.8 4.5 2.3
v -0.8 4.5 0.7
v -0.7 3.8 2.5
v -0.7 3.8 2.4
v -0.7 3.8 0.6
v -0.7 3.8 0.5
v -0.7 4 2.5
v -0.7 4 2.4
v -0.7 4 0.6
v -0.7 4 0.5
v -0.7 4.1 2.2
v -0.7 4.1 2.1
v -0.7 4.2 2.2
v -0.7 4.2 2.1
v -0.4 3.7 2.4
v -0.4 3.7 2.3
v -0.4 3.7 0.7
v -0.4 3.7 0.6
v -0.4 3.8 2.4
v -0.4 3.8 2.3
v -0.4 3.8 0.7
v -0.4 3.8 0.6
v -0.4 4 2.4
v -0.4 4 2.3
v -0.4 4 0.7
v -0.4 4 0.6
v -0.3 4 2.4
v -0.3 4 2.3
v -0.3 4 0.7
v -0.3 4 0.6
v -0.3 4.1 2.4
v -0.3 4.1 2.3
v -0.3 4.1 0.7
v -0.3 4.1 0.6
v 1.19209e-07 4.5 2.2
v 1.19209e-07 4.5 0.8
v 1.19209e-07 4.6 2.2
v 1.19209e-07 4.6 0.8
v 0.2 4.6 2.2
v 0.2 4.6 0.8
v 0.2 4.7 2.2
v 0.2 4.7 0.8
v 0.3 4.7 2.2
v 0.3 4.7 0.8
v 0.3 5 2.2
v 0.3 5 0.8
v 1.7 5 2.3
v 1.7 5 2.2
v 1.7 5 0.8
v 1.7 5 0.7
v 1.7 5.1 2.3
v 1.7 5.1 2.2
v 1.7 5.1 0.8
v 1.7 5.1 0.7
v 1.7 5.2 2.2
v 1.7 5.2 0.8
v 1.8 4.9 2.3
v 1.8 4.9 2.2
v 1.8 4.9 0.8
v 1.8 4.9 0.7
v 1.8 5 2.3
v 1.8 5 2.2
v 1.8 5 0.8
v 1.8 5 0.7
v 1.8 5.1 2.2
v 1.8 5.1 0.8
v 1.9 4.5 2.5
v 1.9 4.5 2.4
v 1.9 4.5 2.3
v 1.9 4.5 0.7
v 1.9 4.5 0.6
v 1.9 4.5 0.5
v 1.9 4.7 2.5
v 1.9 4.7 2.3
v 1.9 4.7 2.2
v 1.9 4.7 0.8
v 1.9 4.7 0.7
v 1.9 4.7 0.5
v 1.9 4.9 2.3
v 1.9 4.9 2.2
v 1.9 4.9 0.8
v 1.9 4.9 0.7
v 1.9 5 2.2
v 1.9 5 0.8
v 2 4.6 2.3
v 2 4.6 0.7
v 2 4.7 2.3
v 2 4.7 0.7
v 2.1 3.7 2.4
v 2.1 3.7 2.3
v 2.1 3.7 0.7
v 2.1 3.7 0.6
v 2.1 4 2.4
v 2.1 4 2.3
v 2.1 4 0.7
v 2.1 4 0.6
v 2.2 4 2.4
v 2.2 4 2.3
v 2.2 4 0.7
v 2.2 4 0.6
v 2.2 4.1 2.4
v 2.2 4.1 2.3
v 2.2 4.1 0.7
v 2.2 4.1 0.6
v 3.1 4.4 2.4
v 3.1 4.4 2.3
v 3.1 4.4 0.7
v 3.1 4.4 0.6
v 3.1 4.5 2.4
v 3.1 4.5 2.3
v 3.1 4.5 0.7
v 3.1 4.5 0.6
v 3.1 4.6 2.3
v 3.1 4.6 0.7
v 3.2 3.7 2.4
v 3.2 3.7 0.6
v 3.2 3.8 2.5
v 3.2 3.8 2.4
v 3.2 3.8 0.6
v 3.2 3.8 0.5
v 3.2 4 2.5
v 3.2 4 2.4
v 3.2 4 0.6
v 3.2 4 0.5
v 3.2 4.1 2.4
v 3.2 4.1 2.3
v 3.2 4.1 2.1
v 3.2 4.1 0.9
v 3.2 4.1 0.7
v 3.2 4.1 0.6
v 3.2 4.2 2.1
v 3.2 4.2 0.9
v 3.2 4.3 2.1
v 3.2 4.3 0.9
v 3.2 4.4 2.4
v 3.2 4.4 2.3
v 3.2 4.4 2.1
v 3.2 4.4 0.9
v 3.2 4.4 0.7
v 3.2 4.4 0.6
v 3.2 4.5 2.3
v 3.2 4.5 0.7
v 3.3 3.8 2.4
v 3.3 3.8 0.6
v 3.3 4 2.4
v 3.3 4 0.6
v -0.9 3.8 2.5
v -0.9 4 2.5
v -0.7 3.8 2.5
v -0.7 4 2.5
v 1.8 4.5 2.5
v 1.8 4.7 2.5
v 1.9 4.5 2.5
v 1.9 4.7 2.5
v 3 3.8 2.5
v 3 4 2.5
v 3.2 3.8 2.5
v 3.2 4 2.5
v -1 3.8 2.4
v -1 4 2.4
v -0.9 3.7 2.4
v -0.9 3.8 2.4
v -0.9 4 2.4
v -0.9 4.1 2.4
v -0.9 4.4 2.4
v -0.8 4.1 2.4
v -0.8 4.4 2.4
v -0.8 4.5 2.4
v -0.7 3.8 2.4
v -0.7 4 2.4
v -0.4 3.7 2.4
v -0.4 3.8 2.4
v -0.4 4 2.4
v -0.3 4 2.4
v -0.3 4.1 2.4
v 0.1 4 2.4
v 0.1 4.1 2.4
v 0.1 4.5 2.4
v 0.2 3.7 2.4
v 0.2 4 2.4
v 0.2 4.3 2.4
v 0.2 4.4 2.4
v 0.2 4.5 2.4
v 0.4 4.3 2.4
v 0.4 4.4 2.4
v 1 3.7 2.4
v 1 4.5 2.4
v 1.1 3.7 2.4
v 1.1 4.3 2.4
v 1.1 4.4 2.4
v 1.1 4.5 2.4
v 1.3 4.3 2.4
v 1.3 4.4 2.4
v 1.8 3.7 2.4
v 1.8 4.5 2.4
v 1.9 3.7 2.4
v 1.9 4.5 2.4
v 2.1 3.7 2.4
v 2.1 4 2.4
v 2.2 4 2.4
v 2.2 4.1 2.4
v 2.6 4 2.4
v 2.6 4.1 2.4
v 2.7 3.7 2.4
v 2.7 3.8 2.4
v 2.7 4 2.4
v 3 3.8 2.4
v 3 4 2.4
v 3.1 4.1 2.4
v 3.1 4.4 2.4
v 3.1 4.5 2.4
v 3.2 3.7 2.4
v 3.2 3.8 2.4
v 3.2 4 2.4
v 3.2 4.1 2.4
v 3.2 4.4 2.4
v 3.3 3.8 2.4
v 3.3 4 2.4
v -1 4.1 2.3
v -1 4.4 2.3
v -0.9 4.1 2.3
v -0.9 4.4 2.3
v -0.9 4.5 2.3
v -0.8 4.4 2.3
v -0.8 4.5 2.3
v -0.8 4.6 2.3
v -0.0999999 4.6 2.3
v -0.0999999 4.7 2.3
v 1.19209e-07 4.5 2.3
v 1.19209e-07 4.7 2.3
v 1.19209e-07 4.8 2.3
v 0.1 4.5 2.3
v 0.1 4.6 2.3
v 0.1 4.8 2.3
v 0.1 4.9 2.3
v 0.2 4.5 2.3
v 0.2 4.6 2.3
v 0.2 4.7 2.3
v 0.2 4.9 2.3
v 0.2 5 2.3
v 0.3 4.5 2.3
v 0.3 4.6 2.3
v 0.3 4.7 2.3
v 0.3 5 2.3
v 0.3 5.1 2.3
v 0.4 4.6 2.3
v 0.4 5 2.3
v 1 4.5 2.3
v 1 5 2.3
v 1.1 4.5 2.3
v 1.1 5 2.3
v 1.7 4.5 2.3
v 1.7 4.9 2.3
v 1.7 5 2.3
v 1.7 5.1 2.3
v 1.8 4.5 2.3
v 1.8 4.7 2.3
v 1.8 4.9 2.3
v 1.8 5 2.3
v 1.9 4.5 2.3
v 1.9 4.7 2.3
v 1.9 4.9 2.3
v 2 4.6 2.3
v 2 4.7 2.3
v 3.1 4.4 2.3
v 3.1 4.5 2.3
v 3.1 4.6 2.3
v 3.2 4.4 2.3
v 3.2 4.5 2.3
v -0.8 4.1 2.2
v -0.8 4.2 2.2
v -0.7 4.1 2.2
v -0.7 4.2 2.2
v 1.19209e-07 4.8 2.2
v 1.19209e-07 4.9 2.2
v 0.1 4.8 2.2
v 0.1 4.9 2.2
v 0.1 5 2.2
v 0.2 4.9 2.2
v 0.2 5 2.2
v 0.2 5.1 2.2
v 0.3 5 2.2
v 0.3 5.1 2.2
v 0.3 5.2 2.2
v 1.7 5 2.2
v 1.7 5.1 2.2
v 1.7 5.2 2.2
v 1.8 4.9 2.2
v 1.8 5 2.2
v 1.8 5.1 2.2
v 1.9 4.9 2.2
v 1.9 5 2.2
v -1 4.1 1.7
v -1 4.3 1.7
v -0.9 4.1 1.7
v -0.9 4.3 1.7
v 1.8 4.6 1.2
v 1.8 4.7 1.2
v 1.9 4.6 1.2
v 1.9 4.7 1.2
v -1 4.1 0.9
v -1 4.4 0.9
v -0.9 4.1 0.9
v -0.9 4.4 0.9
v 1.19209e-07 4.5 0.8
v 1.19209e-07 4.6 0.8
v 0.1 4.5 0.8
v 0.1 4.6 0.8
v 0.2 4.6 0.8
v 0.2 4.7 0.8
v 0.3 4.5 0.8
v 0.3 4.6 0.8
v 0.3 4.7 0.8
v 0.3 5 0.8
v 0.4 4.6 0.8
v 0.4 5 0.8
v 1 4.5 0.8
v 1 5 0.8
v 1.1 4.5 0.8
v 1.1 5 0.8
v 1.7 4.5 0.8
v 1.7 4.9 0.8
v 1.7 5 0.8
v 1.8 4.5 0.8
v 1.8 4.7 0.8
v 1.8 4.9 0.8
v 1.9 4.6 0.8
v 1.9 4.7 0.8
v 2 4.5 0.8
v 2 4.6 0.8
v -0.8 3.7 0.7
v -0.8 3.8 0.7
v -0.8 4.5 0.7
v -0.4 3.7 0.7
v -0.4 3.8 0.7
v -0.4 4 0.7
v -0.3 4 0.7
v -0.3 4.1 0.7
v 1.19209e-07 4.5 0.7
v 0.1 4.1 0.7
v 0.1 4.5 0.7
v 0.2 4 0.7
v 0.2 4.1 0.7
v 0.2 4.3 0.7
v 0.2 4.4 0.7
v 0.2 4.5 0.7
v 0.3 3.7 0.7
v 0.3 4 0.7
v 0.3 4.5 0.7
v 0.4 4.3 0.7
v 0.4 4.4 0.7
v 1 3.7 0.7
v 1 4.5 0.7
v 1.1 3.7 0.7
v 1.1 4.3 0.7
v 1.1 4.4 0.7
v 1.1 4.5 0.7
v 1.3 4.3 0.7
v 1.3 4.4 0.7
v 1.7 4.5 0.7
v 1.8 4.5 0.7
v 1.9 3.7 0.7
v 1.9 4.5 0.7
v 2 3.7 0.7
v 2 4.5 0.7
v 2.1 3.7 0.7
v 2.1 4 0.7
v 2.2 4 0.7
v 2.2 4.1 0.7
v 2.6 4 0.7
v 2.6 4.1 0.7
v 2.7 3.7 0.7
v 2.7 3.8 0.7
v 2.7 4 0.7
v 3 3.7 0.7
v 3 3.8 0.7
v 3 4.5 0.7
v -0.8 3.7 2.3
v -0.8 3.8 2.3
v -0.8 4.5 2.3
v -0.4 3.7 2.3
v -0.4 3.8 2.3
v -0.4 4 2.3
v -0.3 4 2.3
v -0.3 4.1 2.3
v 1.19209e-07 4.5 2.3
v 0.1 4 2.3
v 0.1 4.1 2.3
v 0.1 4.5 2.3
v 0.2 3.7 2.3
v 0.2 4 2.3
v 0.2 4.3 2.3
v 0.2 4.4 2.3
v 0.2 4.5 2.3
v 0.3 4.5 2.3
v 0.4 4.3 2.3
v 0.4 4.4 2.3
v 1 3.7 2.3
v 1 4.5 2.3
v 1.1 3.7 2.3
v 1.1 4.3 2.3
v 1.1 4.4 2.3
v 1.1 4.5 2.3
v 1.3 4.3 2.3
v 1.3 4.4 2.3
v 1.7 4.5 2.3
v 1.8 3.7 2.3
v 1.8 4.5 2.3
v 1.9 3.7 2.3
v 1.9 4.5 2.3
v 2.1 3.7 2.3
v 2.1 4 2.3
v 2.2 4 2.3
v 2.2 4.1 2.3
v 2.6 4 2.3
v 2.6 4.1 2.3
v 2.7 3.7 2.3
v 2.7 3.8 2.3
v 2.7 4 2.3
v 3 3.7 2.3
v 3 3.8 2.3
v 3 4.5 2.3
v 1.19209e-07 4.5 2.2
v 1.19209e-07 4.6 2.2
v 0.1 4.5 2.2
v 0.1 4.6 2.2
v 0.2 4.6 2.2
v 0.2 4.7 2.2
v 0.3 4.5 2.2
v 0.3 4.6 2.2
v 0.3 4.7 2.2
v 0.3 5 2.2
v 0.4 4.6 2.2
v 0.4 5 2.2
v 1 4.5 2.2
v 1 5 2.2
v 1.1 4.5 2.2
v 1.1 5 2.2
v 1.7 4.5 2.2
v 1.7 4.9 2.2
v 1.7 5 2.2
v 1.8 4.5 2.2
v 1.8 4.7 2.2
v 1.8 4.9 2.2
v 1.9 4.6 2.2
v 1.9 4.7 2.2
v 2 4.5 2.2
v 2 4.6 2.2
v -1 4.1 2.1
v -1 4.4 2.1
v -0.9 4.1 2.1
v -0.9 4.4 2.1
v -0.8 4.1 2.1
v -0.8 4.2 2.1
v -0.7 4.1 2.1
v -0.7 4.2 2.1
v -1 4.1 1.2
v -1 4.3 1.2
v -0.9 4.1 1.2
v -0.9 4.3 1.2
v 1.8 4.6 1.1
v 1.8 4.7 1.1
v 1.9 4.6 1.1
v 1.9 4.7 1.1
v 1.19209e-07 4.8 0.8
v 1.19209e-07 4.9 0.8
v 0.1 4.8 0.8
v 0.1 4.9 0.8
v 0.1 5 0.8
v 0.2 4.9 0.8
v 0.2 5 0.8
v 0.2 5.1 0.8
v 0.3 5 0.8
v 0.3 5.1 0.8
v 0.3 5.2 0.8
v 1.7 5 0.8
v 1.7 5.1 0.8
v 1.7 5.2 0.8
v 1.8 4.9 0.8
v 1.8 5 0.8
v 1.8 5.1 0.8
v 1.9 4.9 0.8
v 1.9 5 0.8
v -1 4.1 0.7
v -1 4.4 0.7
v -0.9 4.1 0.7
v -0.9 4.4 0.7
v -0.9 4.5 0.7
v -0.8 4.4 0.7
v -0.8 4.5 0.7
v -0.8 4.6 0.7
v -0.0999999 4.6 0.7
v -0.0999999 4.7 0.7
v 1.19209e-07 4.5 0.7
v 1.19209e-07 4.7 0.7
v 1.19209e-07 4.8 0.7
v 0.1 4.5 0.7
v 0.1 4.6 0.7
v 0.1 4.8 0.7
v 0.1 4.9 0.7
v 0.2 4.5 0.7
v 0.2 4.6 0.7
v 0.2 4.7 0.7
v 0.2 4.9 0.7
v 0.2 5 0.7
v 0.3 4.5 0.7
v 0.3 4.6 0.7
v 0.3 4.7 0.7
v 0.3 5 0.7
v 0.3 5.1 0.7
v 0.4 4.6 0.7
v 0.4 5 0.7
v 1 4.5 0.7
v 1 5 0.7
v 1.1 4.5 0.7
v 1.1 5 0.7
v 1.7 4.5 0.7
v 1.7 4.9 0.7
v 1.7 5 0.7
v 1.7 5.1 0.7
v 1.8 4.5 0.7
v 1.8 4.7 0.7
v 1.8 4.9 0.7
v 1.8 5 0.7
v 1.9 4.5 0.7
v 1.9 4.7 0.7
v 1.9 4.9 0.7
v 2 4.5 0.7
v 2 4.6 0.7
v 2 4.7 0.7
v 3.1 4.4 0.7
v 3.1 4.5 0.7
v 3.1 4.6 0.7
v 3.2 4.4 0.7
v 3.2 4.5 0.7
v -1 3.8 0.6
v -1 4 0.6
v -0.9 3.7 0.6
v -0.9 3.8 0.6
v -0.9 4 0.6
v -0.9 4.1 0.6
v -0.9 4.4 0.6
v -0.8 4.1 0.6
v -0.8 4.4 0.6
v -0.8 4.5 0.6
v -0.7 3.8 0.6
v -0.7 4 0.6
v -0.4 3.7 0.6
v -0.4 3.8 0.6
v -0.4 4 0.6
v -0.3 4 0.6
v -0.3 4.1 0.6
v 0.1 4.1 0.6
v 0.1 4.5 0.6
v 0.2 4 0.6
v 0.2 4.1 0.6
v 0.2 4.3 0.6
v 0.2 4.4 0.6
v 0.2 4.5 0.6
v 0.3 3.7 0.6
v 0.3 4 0.6
v 0.4 4.3 0.6
v 0.4 4.4 0.6
v 1 3.7 0.6
v 1 4.5 0.6
v 1.1 3.7 0.6
v 1.1 4.3 0.6
v 1.1 4.4 0.6
v 1.1 4.5 0.6
v 1.3 4.3 0.6
v 1.3 4.4 0.6
v 1.8 4.5 0.6
v 1.9 3.7 0.6
v 1.9 4.5 0.6
v 2 3.7 0.6
v 2 4.5 0.6
v 2.1 3.7 0.6
v 2.1 4 0.6
v 2.2 4 0.6
v 2.2 4.1 0.6
v 2.6 4 0.6
v 2.6 4.1 0.6
v 2.7 3.7 0.6
v 2.7 3.8 0.6
v 2.7 4 0.6
v 3 3.8 0.6
v 3 4 0.6
v 3.1 4.1 0.6
v 3.1 4.4 0.6
v 3.1 4.5 0.6
v 3.2 3.7 0.6
v 3.2 3.8 0.6
v 3.2 4 0.6
v 3.2 4.1 0.6
v 3.2 4.4 0.6
v 3.3 3.8 0.6
v 3.3 4 0.6
v -0.9 3.8 0.5
v -0.9 4 0.5
v -0.7 3.8 0.5
v -0.7 4 0.5
v 1.8 4.5 0.5
v 1.8 4.7 0.5
v 1.9 4.5 0.5
v 1.9 4.7 0.5
v 3 3.8 0.5
v 3 4 0.5
v 3.2 3.8 0.5
v 3.2 4 0.5
v -0.9 3.7 2.4
v -0.4 3.7 2.4
v 0.2 3.7 2.4
v 1 3.7 2.4
v 1.1 3.7 2.4
v 1.8 3.7 2.4
v 1.9 3.7 2.4
v 2.1 3.7 2.4
v 2.7 3.7 2.4
v 3.2 3.7 2.4
v -0.8 3.7 2.3
v -0.4 3.7 2.3
v 0.2 3.7 2.3
v 1 3.7 2.3
v 1.1 3.7 2.3
v 1.8 3.7 2.3
v 1.9 3.7 2.3
v 2.1 3.7 2.3
v 2.7 3.7 2.3
v 3 3.7 2.3
v -0.8 3.7 0.7
v -0.4 3.7 0.7
v 0.3 3.7 0.7
v 1 3.7 0.7
v 1.1 3.7 0.7
v 1.9 3.7 0.7
v 2 3.7 0.7
v 2.1 3.7 0.7
v 2.7 3.7 0.7
v 3 3.7 0.7
v -0.9 3.7 0.6
v -0.4 3.7 0.6
v 0.3 3.7 0.6
v 1 3.7 0.6
v 1.1 3.7 0.6
v 1.9 3.7 0.6
v 2 3.7 0.6
v 2.1 3.7 0.6
v 2.7 3.7 0.6
v 3.2 3.7 0.6
v -0.9 3.8 2.5
v -0.7 3.8 2.5
v 3 3.8 2.5
v 3.2 3.8 2.5
v -1 3.8 2.4
v -0.9 3.8 2.4
v -0.7 3.8 2.4
v 3 3.8 2.4
v 3.2 3.8 2.4
v 3.3 3.8 2.4
v -1 3.8 0.6
v -0.9 3.8 0.6
v -0.7 3.8 0.6
v 3 3.8 0.6
v 3.2 3.8 0.6
v 3.3 3.8 0.6
v -0.9 3.8 0.5
v -0.7 3.8 0.5
v 3 3.8 0.5
v 3.2 3.8 0.5
v -0.4 4 2.4
v -0.3 4 2.4
v 0.1 4 2.4
v 0.2 4 2.4
v 2.1 4 2.4
v 2.2 4 2.4
v 2.6 4 2.4
v 2.7 4 2.4
v -0.4 4 2.3
v -0.3 4 2.3
v 0.1 4 2.3
v 0.2 4 2.3
v 2.1 4 2.3
v 2.2 4 2.3
v 2.6 4 2.3
v 2.7 4 2.3
v -0.4 4 0.7
v -0.3 4 0.7
v 0.2 4 0.7
v 0.3 4 0.7
v 2.1 4 0.7
v 2.2 4 0.7
v 2.6 4 0.7
v 2.7 4 0.7
v -0.4 4 0.6
v -0.3 4 0.6
v 0.2 4 0.6
v 0.3 4 0.6
v 2.1 4 0.6
v 2.2 4 0.6
v 2.6 4 0.6
v 2.7 4 0.6
v -0.3 4.1 2.4
v 0.1 4.1 2.4
v 2.2 4.1 2.4
v 2.6 4.1 2.4
v -1 4.1 2.3
v -0.9 4.1 2.3
v -0.3 4.1 2.3
v 0.1 4.1 2.3
v 2.2 4.1 2.3
v 2.6 4.1 2.3
v -0.8 4.1 2.2
v -0.7 4.1 2.2
v -1 4.1 2.1
v -0.9 4.1 2.1
v -0.8 4.1 2.1
v -0.7 4.1 2.1
v -1 4.1 1.7
v -0.9 4.1 1.7
v -1 4.1 1.2
v -0.9 4.1 1.2
v -1 4.1 0.9
v -0.9 4.1 0.9
v -1 4.1 0.7
v -0.9 4.1 0.7
v -0.3 4.1 0.7
v 0.1 4.1 0.7
v 0.2 4.1 0.7
v 2.2 4.1 0.7
v 2.6 4.1 0.7
v -0.3 4.1 0.6
v 0.1 4.1 0.6
v 0.2 4.1 0.6
v 2.2 4.1 0.6
v 2.6 4.1 0.6
v 1.8 4.5 2.5
v 1.9 4.5 2.5
v 1.8 4.5 2.4
v 1.9 4.5 2.4
v -0.8 4.5 2.3
v 1.19209e-07 4.5 2.3
v 0.1 4.5 2.3
v 0.2 4.5 2.3
v 0.3 4.5 2.3
v 1 4.5 2.3
v 1.1 4.5 2.3
v 1.7 4.5 2.3
v 1.8 4.5 2.3
v 1.9 4.5 2.3
v 3 4.5 2.3
v 1.19209e-07 4.5 2.2
v 0.1 4.5 2.2
v 0.3 4.5 2.2
v 1 4.5 2.2
v 1.1 4.5 2.2
v 1.7 4.5 2.2
v 1.8 4.5 2.2
v 2 4.5 2.2
v 1.19209e-07 4.5 0.8
v 0.1 4.5 0.8
v 0.3 4.5 0.8
v 1 4.5 0.8
v 1.1 4.5 0.8
v 1.7 4.5 0.8
v 1.8 4.5 0.8
v 2 4.5 0.8
v -0.8 4.5 0.7
v 1.19209e-07 4.5 0.7
v 0.1 4.5 0.7
v 0.2 4.5 0.7
v 0.3 4.5 0.7
v 1 4.5 0.7
v 1.1 4.5 0.7
v 1.7 4.5 0.7
v 1.8 4.5 0.7
v 1.9 4.5 0.7
v 2 4.5 0.7
v 3 4.5 0.7
v 1.8 4.5 0.6
v 1.9 4.5 0.6
v 1.8 4.5 0.5
v 1.9 4.5 0.5
v 1.19209e-07 4.6 2.2
v 0.1 4.6 2.2
v 0.2 4.6 2.2
v 1.9 4.6 2.2
v 2 4.6 2.2
v 1.8 4.6 1.2
v 1.9 4.6 1.2
v 1.8 4.6 1.1
v 1.9 4.6 1.1
v 1.19209e-07 4.6 0.8
v 0.1 4.6 0.8
v 0.2 4.6 0.8
v 1.9 4.6 0.8
v 2 4.6 0.8
v 0.2 4.7 2.2
v 0.3 4.7 2.2
v 1.8 4.7 2.2
v 1.9 4.7 2.2
v 1.8 4.7 1.2
v 1.9 4.7 1.2
v 1.8 4.7 1.1
v 1.9 4.7 1.1
v 0.2 4.7 0.8
v 0.3 4.7 0.8
v 1.8 4.7 0.8
v 1.9 4.7 0.8
v 1.7 4.9 2.2
v 1.8 4.9 2.2
v 1.7 4.9 0.8
v 1.8 4.9 0.8
v 0.3 5 2.2
v 0.4 5 2.2
v 1 5 2.2
v 1.1 5 2.2
v 1.7 5 2.2
v 0.3 5 0.8
v 0.4 5 0.8
v 1 5 0.8
v 1.1 5 0.8
v 1.7 5 0.8
v -0.9 4 2.5
v -0.7 4 2.5
v 3 4 2.5
v 3.2 4 2.5
v -1 4 2.4
v -0.9 4 2.4
v -0.7 4 2.4
v 3 4 2.4
v 3.2 4 2.4
v 3.3 4 2.4
v -1 4 0.6
v -0.9 4 0.6
v -0.7 4 0.6
v 3 4 0.6
v 3.2 4 0.6
v 3.3 4 0.6
v -0.9 4 0.5
v -0.7 4 0.5
v 3 4 0.5
v 3.2 4 0.5
v -0.8 4.2 2.2
v -0.7 4.2 2.2
v -0.8 4.2 2.1
v -0.7 4.2 2.1
v -1 4.3 1.7
v -0.9 4.3 1.7
v -1 4.3 1.2
v -0.9 4.3 1.2
v -0.9 4.4 2.4
v -0.8 4.4 2.4
v 3.1 4.4 2.4
v 3.2 4.4 2.4
v -1 4.4 2.3
v -0.9 4.4 2.3
v -0.8 4.4 2.3
v 3.1 4.4 2.3
v 3.2 4.4 2.3
v -1 4.4 2.1
v -0.9 4.4 2.1
v -1 4.4 0.9
v -0.9 4.4 0.9
v -1 4.4 0.7
v -0.9 4.4 0.7
v -0.8 4.4 0.7
v 3.1 4.4 0.7
v 3.2 4.4 0.7
v -0.9 4.4 0.6
v -0.8 4.4 0.6
v 3.1 4.4 0.6
v 3.2 4.4 0.6
v -0.8 4.5 2.4
v 0.1 4.5 2.4
v 0.2 4.5 2.4
v 1 4.5 2.4
v 1.1 4.5 2.4
v 1.8 4.5 2.4
v 1.9 4.5 2.4
v 3.1 4.5 2.4
v -0.9 4.5 2.3
v -0.8 4.5 2.3
v 1.19209e-07 4.5 2.3
v 0.1 4.5 2.3
v 0.2 4.5 2.3
v 0.3 4.5 2.3
v 1 4.5 2.3
v 1.1 4.5 2.3
v 1.7 4.5 2.3
v 1.8 4.5 2.3
v 1.9 4.5 2.3
v 3.1 4.5 2.3
v 3.2 4.5 2.3
v -0.9 4.5 0.7
v -0.8 4.5 0.7
v 1.19209e-07 4.5 0.7
v 0.1 4.5 0.7
v 0.2 4.5 0.7
v 0.3 4.5 0.7
v 1 4.5 0.7
v 1.1 4.5 0.7
v 1.7 4.5 0.7
v 1.8 4.5 0.7
v 1.9 4.5 0.7
v 2 4.5 0.7
v 3.1 4.5 0.7
v 3.2 4.5 0.7
v -0.8 4.5 0.6
v 0.1 4.5 0.6
v 0.2 4.5 0.6
v 1 4.5 0.6
v 1.1 4.5 0.6
v 1.8 4.5 0.6
v 1.9 4.5 0.6
v 2 4.5 0.6
v 3.1 4.5 0.6
v -0.8 4.6 2.3
v -0.0999999 4.6 2.3
v 2 4.6 2.3
v 3.1 4.6 2.3
v -0.8 4.6 0.7
v -0.0999999 4.6 0.7
v 2 4.6 0.7
v 3.1 4.6 0.7
v 1.8 4.7 2.5
v 1.9 4.7 2.5
v -0.0999999 4.7 2.3
v 1.19209e-07 4.7 2.3
v 1.8 4.7 2.3
v 1.9 4.7 2.3
v 2 4.7 2.3
v 1.19209e-07 4.7 2.2
v 1.9 4.7 2.2
v 1.19209e-07 4.7 0.8
v 1.9 4.7 0.8
v -0.0999999 4.7 0.7
v 1.19209e-07 4.7 0.7
v 1.8 4.7 0.7
v 1.9 4.7 0.7
v 2 4.7 0.7
v 1.8 4.7 0.5
v 1.9 4.7 0.5
v 1.19209e-07 4.8 2.3
v 0.1 4.8 2.3
v 1.19209e-07 4.8 2.2
v 0.1 4.8 2.2
v 1.19209e-07 4.8 0.8
v 0.1 4.8 0.8
v 1.19209e-07 4.8 0.7
v 0.1 4.8 0.7
v 0.1 4.9 2.3
v 0.2 4.9 2.3
v 1.8 4.9 2.3
v 1.9 4.9 2.3
v 1.19209e-07 4.9 2.2
v 0.1 4.9 2.2
v 0.2 4.9 2.2
v 1.8 4.9 2.2
v 1.9 4.9 2.2
v 1.19209e-07 4.9 0.8
v 0.1 4.9 0.8
v 0.2 4.9 0.8
v 1.8 4.9 0.8
v 1.9 4.9 0.8
v 0.1 4.9 0.7
v 0.2 4.9 0.7
v 1.8 4.9 0.7
v 1.9 4.9 0.7
v 0.2 5 2.3
v 0.3 5 2.3
v 1.7 5 2.3
v 1.8 5 2.3
v 0.1 5 2.2
v 0.2 5 2.2
v 0.3 5 2.2
v 1.7 5 2.2
v 1.8 5 2.2
v 1.9 5 2.2
v 0.1 5 0.8
v 0.2 5 0.8
v 0.3 5 0.8
v 1.7 5 0.8
v 1.8 5 0.8
v 1.9 5 0.8
v 0.2 5 0.7
v 0.3 5 0.7
v 1.7 5 0.7
v 1.8 5 0.7
v 0.3 5.1 2.3
v 1.7 5.1 2.3
v 0.2 5.1 2.2
v 0.3 5.1 2.2
v 1.7 5.1 2.2
v 1.8 5.1 2.2
v 0.2 5.1 0.8
v 0.3 5.1 0.8
v 1.7 5.1 0.8
v 1.8 5.1 0.8
v 0.3 5.1 0.7
v 1.7 5.1 0.7
v 0.3 5.2 2.2
v 1.7 5.2 2.2
v 0.3 5.2 0.8
v 1.7 5.2 0.8

# faces
f 3/4/1 2/4/1 1/4/1
f 4/4/1 2/4/1 3/4/1
f 11/8/1 8/8/1 7/8/1
f 12/8/1 8/8/1 11/8/1
f 13/3/1 6/3/1 5/3/1
f 14/3/1 6/3/1 13/3/1
f 15/3/1 10/3/1 9/3/1
f 16/3/1 10/3/1 15/3/1
f 20/1/1 18/1/1 17/1/1
f 21/1/1 18/1/1 20/1/1
f 23/4/1 20/4/1 19/4/1
f 24/4/1 20/4/1 23/4/1
f 25/4/1 22/4/1 21/4/1
f 26/4/1 22/4/1 25/4/1
f 27/6/1 25/6/1 24/6/1
f 28/6/1 25/6/1 27/6/1
f 29/6/1 25/6/1 28/6/1
f 30/6/1 25/6/1 29/6/1
f 31/6/1 25/6/1 30/6/1
f 32/6/1 25/6/1 31/6/1
f 33/6/1 25/6/1 32/6/1
f 34/6/1 25/6/1 33/6/1
f 35/6/1 30/6/1 29/6/1
f 36/6/1 32/6/1 31/6/1
f 37/2/1 28/2/1 27/2/1
f 38/2/1 28/2/1 37/2/1
f 39/6/1 36/6/1 35/6/1
f 39/6/1 35/6/1 29/6/1
f 40/6/1 32/6/1 36/6/1
f 40/6/1 36/6/1 39/6/1
f 41/2/1 34/2/1 33/2/1
f 42/2/1 34/2/1 41/2/1
f 43/6/1 40/6/1 39/6/1
f 43/6/1 41/6/1 40/6/1
f 43/6/1 39/6/1 38/6/1
f 44/6/1 41/6/1 43/6/1
f 49/6/1 46/6/1 45/6/1
f 50/6/1 46/6/1 49/6/1
f 51/6/1 48/6/1 47/6/1
f 52/6/1 48/6/1 51/6/1
f 53/6/1 51/6/1 50/6/1
f 54/6/1 51/6/1 53/6/1
f 57/6/1 56/6/1 55/6/1
f 58/6/1 56/6/1 57/6/1
f 63/7/1 60/7/1 59/7/1
f 64/8/1 61/8/1 60/8/1
f 64/7/1 60/7/1 63/7/1
f 65/7/1 62/7/1 61/7/1
f 65/8/1 61/8/1 64/8/1
f 66/7/1 62/7/1 65/7/1
f 67/8/1 65/8/1 64/8/1
f 68/8/1 65/8/1 67/8/1
f 71/5/1 70/5/1 69/5/1
f 72/5/1 70/5/1 71/5/1
f 77/7/1 74/7/1 73/7/1
f 78/7/1 74/7/1 77/7/1
f 79/7/1 76/7/1 75/7/1
f 80/7/1 76/7/1 79/7/1
f 81/8/1 79/8/1 78/8/1
f 82/8/1 79/8/1 81/8/1
f 85/6/1 84/6/1 83/6/1
f 86/6/1 84/6/1 85/6/1
f 89/6/1 88/6/1 87/6/1
f 90/6/1 88/6/1 89/6/1
f 95/7/1 92/7/1 91/7/1
f 96/7/1 92/7/1 95/7/1
f 97/7/1 94/7/1 93/7/1
f 98/7/1 94/7/1 97/7/1
f 99/7/1 97/7/1 96/7/1
f 100/7/1 97/7/1 99/7/1
f 103/6/1 102/6/1 101/6/1
f 104/6/1 102/6/1 103/6/1
f 109/7/1 106/7/1 105/7/1
f 110/7/1 106/7/1 109/7/1
f 111/7/1 108/7/1 107/7/1
f 112/7/1 108/7/1 111/7/1
f 113/7/1 111/7/1 110/7/1
f 114/7/1 111/7/1 113/7/1
f 117/9/1 116/9/1 115/9/1
f 118/9/1 116/9/1 117/9/1
f 127/5/1 120/5/1 119/5/1
f 127/5/1 121/5/1 120/5/1
f 128/5/1 121/5/1 127/5/1
f 130/6/1 126/6/1 125/6/1
f 131/6/1 126/6/1 130/6/1
f 133/5/1 124/5/1 123/5/1
f 133/5/1 123/5/1 122/5/1
f 134/5/1 124/5/1 133/5/1
f 135/8/1 132/8/1 131/8/1
f 135/8/1 131/8/1 130/8/1
f 135/8/1 130/8/1 129/8/1
f 136/8/1 132/8/1 135/8/1
f 141/6/1 138/6/1 137/6/1
f 142/6/1 138/6/1 141/6/1
f 143/6/1 140/6/1 139/6/1
f 144/6/1 140/6/1 143/6/1
f 147/6/1 146/6/1 145/6/1
f 148/6/1 146/6/1 147/6/1
f 153/6/1 150/6/1 149/6/1
f 154/6/1 150/6/1 153/6/1
f 155/6/1 152/6/1 151/6/1
f 156/6/1 152/6/1 155/6/1
f 161/1/1 158/1/1 157/1/1
f 162/1/1 158/1/1 161/1/1
f 163/1/1 160/1/1 159/1/1
f 164/1/1 160/1/1 163/1/1
f 165/6/1 162/6/1 161/6/1
f 166/6/1 162/6/1 165/6/1
f 167/6/1 164/6/1 163/6/1
f 168/6/1 164/6/1 167/6/1
f 173/1/1 170/1/1 169/1/1
f 174/1/1 170/1/1 173/1/1
f 177/4/1 172/4/1 171/4/1
f 178/4/1 172/4/1 177/4/1
f 179/4/1 176/4/1 175/4/1
f 180/4/1 176/4/1 179/4/1
f 181/9/1 174/9/1 173/9/1
f 182/9/1 174/9/1 181/9/1
f 183/1/2 184/1/2 185/1/2
f 185/1/2 184/1/2 186/1/2
f 185/6/2 186/6/2 187/6/2
f 187/6/2 186/6/2 188/6/2
f 185/6/2 187/6/2 189/6/2
f 188/6/2 186/6/2 190/6/2
f 185/6/2 189/6/2 191/6/2
f 189/6/2 190/6/2 191/6/2
f 190/6/2 186/6/2 192/6/2
f 191/6/2 190/6/2 192/6/2
f 193/4/2 194/4/2 197/4/2
f 197/4/2 194/4/2 198/4/2
f 195/4/2 196/4/2 199/4/2
f 199/4/2 196/4/2 200/4/2
f 201/6/2 202/6/2 203/6/2
f 203/6/2 202/6/2 204/6/2
f 205/1/2 206/1/2 209/1/2
f 209/1/2 206/1/2 210/1/2
f 207/1/2 208/1/2 211/1/2
f 211/1/2 208/1/2 212/1/2
f 209/6/2 210/6/2 213/6/2
f 213/6/2 210/6/2 214/6/2
f 211/6/2 212/6/2 215/6/2
f 215/6/2 212/6/2 216/6/2
f 217/6/2 218/6/2 221/6/2
f 221/6/2 218/6/2 222/6/2
f 219/6/2 220/6/2 223/6/2
f 223/6/2 220/6/2 224/6/2
f 225/6/2 226/6/2 227/6/2
f 227/6/2 226/6/2 228/6/2
f 229/6/2 230/6/2 231/6/2
f 231/6/2 230/6/2 232/6/2
f 233/9/2 234/9/2 235/9/2
f 235/9/2 234/9/2 236/9/2
f 237/7/2 238/7/2 241/7/2
f 241/7/2 238/7/2 242/7/2
f 239/7/2 240/7/2 243/7/2
f 243/7/2 240/7/2 244/7/2
f 242/7/2 243/7/2 245/7/2
f 245/7/2 243/7/2 246/7/2
f 247/7/2 248/7/2 251/7/2
f 251/7/2 248/7/2 252/7/2
f 249/7/2 250/7/2 253/7/2
f 253/7/2 250/7/2 254/7/2
f 252/7/2 253/7/2 255/7/2
f 255/7/2 253/7/2 256/7/2
f 257/5/2 258/5/2 263/5/2
f 258/5/2 259/5/2 263/5/2
f 263/5/2 259/5/2 264/5/2
f 261/5/2 262/5/2 267/5/2
f 260/5/2 261/5/2 267/5/2
f 267/5/2 262/5/2 268/5/2
f 264/6/2 265/6/2 269/6/2
f 265/8/2 266/8/2 270/8/2
f 269/6/2 265/6/2 270/6/2
f 266/6/2 267/6/2 271/6/2
f 270/8/2 266/8/2 271/8/2
f 271/6/2 267/6/2 272/6/2
f 270/8/2 271/8/2 273/8/2
f 273/8/2 271/8/2 274/8/2
f 275/6/2 276/6/2 277/6/2
f 277/6/2 276/6/2 278/6/2
f 279/6/2 280/6/2 283/6/2
f 283/6/2 280/6/2 284/6/2
f 281/6/2 282/6/2 285/6/2
f 285/6/2 282/6/2 286/6/2
f 287/6/2 288/6/2 291/6/2
f 291/6/2 288/6/2 292/6/2
f 289/6/2 290/6/2 293/6/2
f 293/6/2 290/6/2 294/6/2
f 295/6/2 296/6/2 299/6/2
f 299/6/2 296/6/2 300/6/2
f 297/6/2 298/6/2 301/6/2
f 301/6/2 298/6/2 302/6/2
f 300/6/2 301/6/2 303/6/2
f 303/6/2 301/6/2 304/6/2
f 305/1/2 306/1/2 308/1/2
f 308/1/2 306/1/2 309/1/2
f 307/4/2 308/4/2 311/4/2
f 311/4/2 308/4/2 312/4/2
f 309/4/2 310/4/2 313/4/2
f 313/4/2 310/4/2 314/4/2
f 312/6/2 313/6/2 315/6/2
f 315/6/2 313/6/2 316/6/2
f 316/6/2 313/6/2 317/6/2
f 317/6/2 313/6/2 318/6/2
f 318/6/2 313/6/2 319/6/2
f 319/6/2 313/6/2 320/6/2
f 316/8/2 317/8/2 321/8/2
f 317/5/2 318/5/2 321/5/2
f 318/8/2 319/8/2 322/8/2
f 321/5/2 318/5/2 322/5/2
f 316/8/2 321/8/2 323/8/2
f 321/4/2 322/4/2 323/4/2
f 322/8/2 319/8/2 324/8/2
f 323/4/2 322/4/2 324/4/2
f 315/4/2 316/4/2 325/4/2
f 316/8/2 323/8/2 326/8/2
f 325/4/2 316/4/2 326/4/2
f 323/5/2 324/5/2 327/5/2
f 326/8/2 323/8/2 327/8/2
f 324/8/2 319/8/2 328/8/2
f 327/5/2 324/5/2 328/5/2
f 319/4/2 320/4/2 329/4/2
f 328/8/2 319/8/2 329/8/2
f 329/4/2 320/4/2 330/4/2
f 326/6/2 327/6/2 331/6/2
f 327/6/2 328/6/2 331/6/2
f 328/6/2 329/6/2 331/6/2
f 331/6/2 329/6/2 332/6/2
f 333/4/2 334/4/2 335/4/2
f 335/4/2 334/4/2 336/4/2
f 339/4/3 338/4/3 337/4/3
f 340/4/3 338/4/3 339/4/3
f 343/5/3 342/5/3 341/5/3
f 344/5/3 342/5/3 343/5/3
f 347/4/3 346/4/3 345/4/3
f 348/4/3 346/4/3 347/4/3
f 352/4/3 350/4/3 349/4/3
f 353/4/3 350/4/3 352/4/3
f 356/2/3 355/2/3 354/2/3
f 356/6/3 354/6/3 353/6/3
f 357/2/3 355/2/3 356/2/3
f 359/1/3 352/1/3 351/1/3
f 360/6/3 358/6/3 357/6/3
f 360/6/3 356/6/3 353/6/3
f 360/6/3 357/6/3 356/6/3
f 361/1/3 359/1/3 351/1/3
f 362/6/3 360/6/3 359/6/3
f 362/1/3 359/1/3 361/1/3
f 363/6/3 358/6/3 360/6/3
f 363/6/3 360/6/3 362/6/3
f 364/6/3 358/6/3 363/6/3
f 365/6/3 358/6/3 364/6/3
f 367/6/3 358/6/3 365/6/3
f 368/6/3 358/6/3 367/6/3
f 370/5/3 367/5/3 366/5/3
f 370/5/3 368/5/3 367/5/3
f 371/5/3 368/5/3 370/5/3
f 372/5/3 368/5/3 371/5/3
f 373/5/3 368/5/3 372/5/3
f 374/6/3 370/6/3 369/6/3
f 374/6/3 371/6/3 370/6/3
f 374/5/3 372/5/3 371/5/3
f 375/6/3 373/6/3 372/6/3
f 375/5/3 372/5/3 374/5/3
f 376/6/3 374/6/3 369/6/3
f 376/6/3 375/6/3 374/6/3
f 377/6/3 373/6/3 375/6/3
f 377/6/3 375/6/3 376/6/3
f 378/5/3 377/5/3 376/5/3
f 379/5/3 377/5/3 378/5/3
f 380/5/3 377/5/3 379/5/3
f 381/5/3 377/5/3 380/5/3
f 382/6/3 379/6/3 378/6/3
f 382/5/3 380/5/3 379/5/3
f 383/6/3 381/6/3 380/6/3
f 383/5/3 380/5/3 382/5/3
f 384/6/3 382/6/3 378/6/3
f 384/6/3 383/6/3 382/6/3
f 385/6/3 381/6/3 383/6/3
f 385/6/3 383/6/3 384/6/3
f 386/5/3 385/5/3 384/5/3
f 387/5/3 385/5/3 386/5/3
f 388/6/3 387/6/3 386/6/3
f 389/6/3 387/6/3 388/6/3
f 390/6/3 387/6/3 389/6/3
f 391/6/3 387/6/3 390/6/3
f 393/6/3 387/6/3 391/6/3
f 396/6/3 393/6/3 392/6/3
f 397/1/3 395/1/3 394/1/3
f 397/6/3 396/6/3 395/6/3
f 398/6/3 393/6/3 396/6/3
f 398/6/3 396/6/3 397/6/3
f 399/6/3 387/6/3 393/6/3
f 399/6/3 393/6/3 398/6/3
f 400/6/3 387/6/3 399/6/3
f 401/6/3 387/6/3 400/6/3
f 402/1/3 397/1/3 394/1/3
f 403/1/3 397/1/3 402/1/3
f 404/6/3 399/6/3 398/6/3
f 405/4/3 400/4/3 399/4/3
f 405/6/3 399/6/3 404/6/3
f 406/4/3 400/4/3 405/4/3
f 407/4/3 404/4/3 403/4/3
f 408/4/3 404/4/3 407/4/3
f 411/3/3 410/3/3 409/3/3
f 412/3/3 410/3/3 411/3/3
f 414/6/3 413/6/3 412/6/3
f 415/6/3 413/6/3 414/6/3
f 417/6/3 416/6/3 415/6/3
f 419/6/3 417/6/3 415/6/3
f 419/6/3 418/6/3 417/6/3
f 420/6/3 418/6/3 419/6/3
f 422/7/3 420/7/3 419/7/3
f 422/7/3 421/7/3 420/7/3
f 423/7/3 421/7/3 422/7/3
f 424/7/3 421/7/3 423/7/3
f 426/5/3 423/5/3 422/5/3
f 427/7/3 425/7/3 424/7/3
f 427/5/3 423/5/3 426/5/3
f 427/7/3 424/7/3 423/7/3
f 428/7/3 425/7/3 427/7/3
f 429/7/3 425/7/3 428/7/3
f 431/5/3 427/5/3 426/5/3
f 431/5/3 428/5/3 427/5/3
f 432/5/3 428/5/3 431/5/3
f 433/7/3 430/7/3 429/7/3
f 433/5/3 428/5/3 432/5/3
f 433/7/3 429/7/3 428/7/3
f 434/7/3 430/7/3 433/7/3
f 436/6/3 432/6/3 431/6/3
f 436/5/3 433/5/3 432/5/3
f 436/5/3 434/5/3 433/5/3
f 437/7/3 435/7/3 434/7/3
f 437/5/3 434/5/3 436/5/3
f 438/6/3 436/6/3 431/6/3
f 438/6/3 437/6/3 436/6/3
f 439/7/3 435/7/3 437/7/3
f 439/6/3 437/6/3 438/6/3
f 440/5/3 439/5/3 438/5/3
f 441/7/3 435/7/3 439/7/3
f 441/5/3 439/5/3 440/5/3
f 442/6/3 441/6/3 440/6/3
f 443/6/3 441/6/3 442/6/3
f 444/7/3 435/7/3 441/7/3
f 444/6/3 441/6/3 443/6/3
f 445/7/3 435/7/3 444/7/3
f 446/5/3 443/5/3 442/5/3
f 447/5/3 443/5/3 446/5/3
f 448/7/3 444/7/3 443/7/3
f 448/5/3 443/5/3 447/5/3
f 449/7/3 444/7/3 448/7/3
f 451/6/3 448/6/3 447/6/3
f 452/6/3 448/6/3 451/6/3
f 453/6/3 451/6/3 450/6/3
f 454/6/3 451/6/3 453/6/3
f 456/6/3 453/6/3 450/6/3
f 457/6/3 453/6/3 456/6/3
f 458/6/3 456/6/3 455/6/3
f 459/6/3 456/6/3 458/6/3
f 462/6/3 461/6/3 460/6/3
f 463/6/3 461/6/3 462/6/3
f 466/8/3 465/8/3 464/8/3
f 467/8/3 465/8/3 466/8/3
f 469/8/3 468/8/3 467/8/3
f 470/8/3 468/8/3 469/8/3
f 472/7/3 471/7/3 470/7/3
f 473/7/3 471/7/3 472/7/3
f 476/7/3 474/7/3 473/7/3
f 477/7/3 474/7/3 476/7/3
f 479/7/3 476/7/3 475/7/3
f 480/7/3 476/7/3 479/7/3
f 481/8/3 479/8/3 478/8/3
f 482/8/3 479/8/3 481/8/3
f 485/8/3 484/8/3 483/8/3
f 486/8/3 484/8/3 485/8/3
f 489/6/3 488/6/3 487/6/3
f 490/6/3 488/6/3 489/6/3
f 493/3/3 492/3/3 491/3/3
f 494/3/3 492/3/3 493/3/3
f 497/7/3 496/7/3 495/7/3
f 498/7/3 496/7/3 497/7/3
f 499/5/3 498/5/3 497/5/3
f 501/5/3 499/5/3 497/5/3
f 501/5/3 500/5/3 499/5/3
f 502/5/3 500/5/3 501/5/3
f 503/5/3 500/5/3 502/5/3
f 505/6/3 502/6/3 501/6/3
f 505/5/3 504/5/3 503/5/3
f 505/5/3 503/5/3 502/5/3
f 506/5/3 504/5/3 505/5/3
f 507/6/3 505/6/3 501/6/3
f 507/6/3 506/6/3 505/6/3
f 508/6/3 506/6/3 507/6/3
f 509/5/3 508/5/3 507/5/3
f 510/5/3 508/5/3 509/5/3
f 511/6/3 510/6/3 509/6/3
f 512/6/3 510/6/3 511/6/3
f 513/6/3 510/6/3 512/6/3
f 514/5/3 512/5/3 511/5/3
f 515/5/3 512/5/3 514/5/3
f 516/5/3 512/5/3 515/5/3
f 517/6/3 515/6/3 514/6/3
f 518/6/3 515/6/3 517/6/3
f 519/6/3 517/6/3 514/6/3
f 520/6/3 517/6/3 519/6/3
f 524/1/3 522/1/3 521/1/3
f 525/6/3 523/6/3 522/6/3
f 525/1/3 522/1/3 524/1/3
f 526/6/3 523/6/3 525/6/3
f 527/6/3 523/6/3 526/6/3
f 528/6/3 523/6/3 527/6/3
f 529/6/3 523/6/3 528/6/3
f 530/6/3 529/6/3 528/6/3
f 531/6/3 529/6/3 530/6/3
f 533/5/3 531/5/3 530/5/3
f 534/5/3 531/5/3 533/5/3
f 535/5/3 531/5/3 534/5/3
f 536/5/3 531/5/3 535/5/3
f 538/6/3 533/6/3 532/6/3
f 538/6/3 534/6/3 533/6/3
f 539/6/3 536/6/3 535/6/3
f 540/6/3 538/6/3 537/6/3
f 540/5/3 535/5/3 534/5/3
f 540/6/3 534/6/3 538/6/3
f 541/6/3 539/6/3 535/6/3
f 541/5/3 535/5/3 540/5/3
f 542/6/3 540/6/3 537/6/3
f 542/6/3 541/6/3 540/6/3
f 543/6/3 539/6/3 541/6/3
f 543/6/3 541/6/3 542/6/3
f 544/5/3 543/5/3 542/5/3
f 545/5/3 543/5/3 544/5/3
f 546/5/3 543/5/3 545/5/3
f 547/5/3 543/5/3 546/5/3
f 548/6/3 545/6/3 544/6/3
f 548/5/3 546/5/3 545/5/3
f 549/6/3 547/6/3 546/6/3
f 549/5/3 546/5/3 548/5/3
f 550/6/3 549/6/3 548/6/3
f 550/6/3 547/6/3 549/6/3
f 551/6/3 550/6/3 548/6/3
f 552/6/3 548/6/3 544/6/3
f 552/6/3 551/6/3 548/6/3
f 553/6/3 551/6/3 552/6/3
f 554/5/3 553/5/3 552/5/3
f 555/5/3 553/5/3 554/5/3
f 556/6/3 555/6/3 554/6/3
f 557/6/3 555/6/3 556/6/3
f 558/6/3 555/6/3 557/6/3
f 559/6/3 555/6/3 558/6/3
f 561/6/3 555/6/3 559/6/3
f 564/6/3 561/6/3 560/6/3
f 565/1/3 563/1/3 562/1/3
f 566/6/3 564/6/3 563/6/3
f 566/1/3 563/1/3 565/1/3
f 567/6/3 555/6/3 561/6/3
f 567/6/3 564/6/3 566/6/3
f 567/6/3 561/6/3 564/6/3
f 568/1/4 569/1/4 571/1/4
f 569/6/4 570/6/4 572/6/4
f 571/1/4 569/1/4 572/1/4
f 572/6/4 570/6/4 573/6/4
f 573/6/4 570/6/4 574/6/4
f 574/6/4 570/6/4 575/6/4
f 575/6/4 570/6/4 576/6/4
f 575/6/4 576/6/4 578/6/4
f 578/6/4 576/6/4 579/6/4
f 577/5/4 578/5/4 581/5/4
f 578/5/4 579/5/4 581/5/4
f 581/5/4 579/5/4 582/5/4
f 582/5/4 579/5/4 583/5/4
f 583/5/4 579/5/4 584/5/4
f 583/6/4 584/6/4 585/6/4
f 580/6/4 581/6/4 586/6/4
f 581/6/4 582/6/4 586/6/4
f 582/5/4 583/5/4 586/5/4
f 583/6/4 585/6/4 587/6/4
f 586/5/4 583/5/4 587/5/4
f 580/6/4 586/6/4 588/6/4
f 586/6/4 587/6/4 588/6/4
f 587/6/4 585/6/4 589/6/4
f 588/6/4 587/6/4 589/6/4
f 588/5/4 589/5/4 590/5/4
f 590/5/4 589/5/4 591/5/4
f 591/5/4 589/5/4 592/5/4
f 592/5/4 589/5/4 593/5/4
f 590/6/4 591/6/4 594/6/4
f 591/5/4 592/5/4 594/5/4
f 592/6/4 593/6/4 595/6/4
f 594/5/4 592/5/4 595/5/4
f 594/6/4 595/6/4 596/6/4
f 595/6/4 593/6/4 596/6/4
f 590/6/4 594/6/4 597/6/4
f 594/6/4 596/6/4 597/6/4
f 597/6/4 596/6/4 598/6/4
f 597/5/4 598/5/4 599/5/4
f 599/5/4 598/5/4 600/5/4
f 599/6/4 600/6/4 601/6/4
f 601/6/4 600/6/4 602/6/4
f 602/6/4 600/6/4 603/6/4
f 603/6/4 600/6/4 604/6/4
f 604/6/4 600/6/4 606/6/4
f 605/6/4 606/6/4 609/6/4
f 607/1/4 608/1/4 610/1/4
f 608/6/4 609/6/4 611/6/4
f 610/1/4 608/1/4 611/1/4
f 606/6/4 600/6/4 612/6/4
f 611/6/4 609/6/4 612/6/4
f 609/6/4 606/6/4 612/6/4
f 613/7/4 614/7/4 615/7/4
f 615/7/4 614/7/4 616/7/4
f 615/5/4 616/5/4 617/5/4
f 615/5/4 617/5/4 619/5/4
f 617/5/4 618/5/4 619/5/4
f 619/5/4 618/5/4 620/5/4
f 620/5/4 618/5/4 621/5/4
f 619/6/4 620/6/4 623/6/4
f 621/5/4 622/5/4 623/5/4
f 620/5/4 621/5/4 623/5/4
f 623/5/4 622/5/4 624/5/4
f 619/6/4 623/6/4 625/6/4
f 623/6/4 624/6/4 625/6/4
f 625/6/4 624/6/4 626/6/4
f 625/5/4 626/5/4 627/5/4
f 627/5/4 626/5/4 628/5/4
f 627/6/4 628/6/4 629/6/4
f 629/6/4 628/6/4 630/6/4
f 630/6/4 628/6/4 631/6/4
f 629/5/4 630/5/4 632/5/4
f 632/5/4 630/5/4 633/5/4
f 633/5/4 630/5/4 634/5/4
f 632/6/4 633/6/4 635/6/4
f 635/6/4 633/6/4 636/6/4
f 632/6/4 635/6/4 637/6/4
f 637/6/4 635/6/4 638/6/4
f 639/3/4 640/3/4 641/3/4
f 641/3/4 640/3/4 642/3/4
f 643/6/4 644/6/4 645/6/4
f 645/6/4 644/6/4 646/6/4
f 647/8/4 648/8/4 649/8/4
f 649/8/4 648/8/4 650/8/4
f 651/6/4 652/6/4 653/6/4
f 653/6/4 652/6/4 654/6/4
f 655/8/4 656/8/4 657/8/4
f 657/8/4 656/8/4 658/8/4
f 658/8/4 659/8/4 660/8/4
f 660/8/4 659/8/4 661/8/4
f 661/7/4 662/7/4 663/7/4
f 663/7/4 662/7/4 664/7/4
f 664/7/4 665/7/4 667/7/4
f 667/7/4 665/7/4 668/7/4
f 666/7/4 667/7/4 670/7/4
f 670/7/4 667/7/4 671/7/4
f 669/8/4 670/8/4 672/8/4
f 672/8/4 670/8/4 673/8/4
f 674/3/4 675/3/4 676/3/4
f 676/3/4 675/3/4 677/3/4
f 677/6/4 678/6/4 679/6/4
f 679/6/4 678/6/4 680/6/4
f 680/6/4 681/6/4 682/6/4
f 680/6/4 682/6/4 684/6/4
f 682/6/4 683/6/4 684/6/4
f 684/6/4 683/6/4 685/6/4
f 684/7/4 685/7/4 687/7/4
f 685/7/4 686/7/4 687/7/4
f 687/7/4 686/7/4 688/7/4
f 688/7/4 686/7/4 689/7/4
f 687/5/4 688/5/4 691/5/4
f 689/7/4 690/7/4 692/7/4
f 691/5/4 688/5/4 692/5/4
f 688/7/4 689/7/4 692/7/4
f 692/7/4 690/7/4 693/7/4
f 693/7/4 690/7/4 694/7/4
f 691/5/4 692/5/4 696/5/4
f 692/5/4 693/5/4 696/5/4
f 696/5/4 693/5/4 697/5/4
f 694/7/4 695/7/4 698/7/4
f 697/5/4 693/5/4 698/5/4
f 693/7/4 694/7/4 698/7/4
f 698/7/4 695/7/4 699/7/4
f 696/6/4 697/6/4 701/6/4
f 697/5/4 698/5/4 701/5/4
f 698/5/4 699/5/4 701/5/4
f 699/7/4 700/7/4 702/7/4
f 701/5/4 699/5/4 702/5/4
f 696/6/4 701/6/4 703/6/4
f 701/6/4 702/6/4 703/6/4
f 702/7/4 700/7/4 704/7/4
f 703/6/4 702/6/4 704/6/4
f 703/5/4 704/5/4 705/5/4
f 704/7/4 700/7/4 706/7/4
f 705/5/4 704/5/4 706/5/4
f 705/6/4 706/6/4 707/6/4
f 707/6/4 706/6/4 708/6/4
f 706/7/4 700/7/4 709/7/4
f 708/6/4 706/6/4 709/6/4
f 709/7/4 700/7/4 710/7/4
f 707/5/4 708/5/4 711/5/4
f 711/5/4 708/5/4 712/5/4
f 708/7/4 709/7/4 713/7/4
f 712/5/4 708/5/4 713/5/4
f 713/7/4 709/7/4 714/7/4
f 712/6/4 713/6/4 716/6/4
f 716/6/4 713/6/4 717/6/4
f 715/6/4 716/6/4 718/6/4
f 718/6/4 716/6/4 719/6/4
f 719/6/4 716/6/4 720/6/4
f 718/6/4 719/6/4 722/6/4
f 722/6/4 719/6/4 723/6/4
f 721/6/4 722/6/4 724/6/4
f 724/6/4 722/6/4 725/6/4
f 726/4/4 727/4/4 729/4/4
f 729/4/4 727/4/4 730/4/4
f 731/2/4 732/2/4 733/2/4
f 730/6/4 731/6/4 733/6/4
f 733/2/4 732/2/4 734/2/4
f 728/1/4 729/1/4 736/1/4
f 734/6/4 735/6/4 737/6/4
f 730/6/4 733/6/4 737/6/4
f 733/6/4 734/6/4 737/6/4
f 728/1/4 736/1/4 738/1/4
f 736/6/4 737/6/4 739/6/4
f 738/1/4 736/1/4 739/1/4
f 737/6/4 735/6/4 740/6/4
f 739/6/4 737/6/4 740/6/4
f 740/6/4 735/6/4 741/6/4
f 741/6/4 735/6/4 742/6/4
f 742/6/4 735/6/4 743/6/4
f 743/6/4 735/6/4 744/6/4
f 743/5/4 744/5/4 746/5/4
f 746/5/4 744/5/4 747/5/4
f 747/5/4 744/5/4 748/5/4
f 748/5/4 744/5/4 749/5/4
f 745/6/4 746/6/4 751/6/4
f 746/6/4 747/6/4 751/6/4
f 747/5/4 748/5/4 752/5/4
f 750/6/4 751/6/4 752/6/4
f 751/6/4 747/6/4 752/6/4
f 748/6/4 749/6/4 753/6/4
f 752/5/4 748/5/4 753/5/4
f 750/6/4 752/6/4 754/6/4
f 752/6/4 753/6/4 754/6/4
f 753/6/4 749/6/4 755/6/4
f 754/6/4 753/6/4 755/6/4
f 754/5/4 755/5/4 756/5/4
f 756/5/4 755/5/4 757/5/4
f 757/5/4 755/5/4 758/5/4
f 758/5/4 755/5/4 759/5/4
f 756/6/4 757/6/4 760/6/4
f 757/5/4 758/5/4 760/5/4
f 758/6/4 759/6/4 761/6/4
f 760/5/4 758/5/4 761/5/4
f 760/6/4 761/6/4 762/6/4
f 761/6/4 759/6/4 762/6/4
f 756/6/4 760/6/4 763/6/4
f 760/6/4 762/6/4 763/6/4
f 763/6/4 762/6/4 764/6/4
f 763/5/4 764/5/4 765/5/4
f 765/5/4 764/5/4 766/5/4
f 765/6/4 766/6/4 767/6/4
f 767/6/4 766/6/4 768/6/4
f 768/6/4 766/6/4 769/6/4
f 769/6/4 766/6/4 770/6/4
f 770/6/4 766/6/4 772/6/4
f 771/6/4 772/6/4 775/6/4
f 773/1/4 774/1/4 776/1/4
f 774/6/4 775/6/4 776/6/4
f 775/6/4 772/6/4 777/6/4
f 776/6/4 775/6/4 777/6/4
f 772/6/4 766/6/4 778/6/4
f 777/6/4 772/6/4 778/6/4
f 778/6/4 766/6/4 779/6/4
f 779/6/4 766/6/4 780/6/4
f 773/1/4 776/1/4 781/1/4
f 781/1/4 776/1/4 782/1/4
f 777/6/4 778/6/4 783/6/4
f 778/4/4 779/4/4 784/4/4
f 783/6/4 778/6/4 784/6/4
f 784/4/4 779/4/4 785/4/4
f 782/4/4 783/4/4 786/4/4
f 786/4/4 783/4/4 787/4/4
f 788/4/4 789/4/4 790/4/4
f 790/4/4 789/4/4 791/4/4
f 792/5/4 793/5/4 794/5/4
f 794/5/4 793/5/4 795/5/4
f 796/4/4 797/4/4 798/4/4
f 798/4/4 797/4/4 799/4/4
f 810/1/5 801/1/5 800/1/5
f 811/1/5 801/1/5 810/1/5
f 812/6/5 803/6/5 802/6/5
f 813/5/5 804/5/5 803/5/5
f 813/6/5 803/6/5 812/6/5
f 814/6/5 805/6/5 804/6/5
f 814/5/5 804/5/5 813/5/5
f 815/5/5 806/5/5 805/5/5
f 815/6/5 805/6/5 814/6/5
f 816/6/5 807/6/5 806/6/5
f 816/5/5 806/5/5 815/5/5
f 817/6/5 807/6/5 816/6/5
f 818/1/5 809/1/5 808/1/5
f 819/1/5 809/1/5 818/1/5
f 820/1/5 810/1/5 800/1/5
f 829/1/5 809/1/5 819/1/5
f 830/1/5 820/1/5 800/1/5
f 830/1/5 821/1/5 820/1/5
f 831/1/5 821/1/5 830/1/5
f 832/6/5 823/6/5 822/6/5
f 833/5/5 824/5/5 823/5/5
f 833/6/5 823/6/5 832/6/5
f 834/6/5 825/6/5 824/6/5
f 834/5/5 824/5/5 833/5/5
f 835/5/5 826/5/5 825/5/5
f 835/6/5 825/6/5 834/6/5
f 836/6/5 827/6/5 826/6/5
f 836/5/5 826/5/5 835/5/5
f 837/6/5 827/6/5 836/6/5
f 838/1/5 829/1/5 828/1/5
f 839/1/5 809/1/5 829/1/5
f 839/1/5 829/1/5 838/1/5
f 845/4/5 841/4/5 840/4/5
f 846/4/5 841/4/5 845/4/5
f 847/4/5 843/4/5 842/4/5
f 848/4/5 843/4/5 847/4/5
f 850/4/5 845/4/5 844/4/5
f 851/4/5 845/4/5 850/4/5
f 854/4/5 849/4/5 848/4/5
f 855/4/5 849/4/5 854/4/5
f 856/4/5 852/4/5 851/4/5
f 857/4/5 852/4/5 856/4/5
f 858/4/5 854/4/5 853/4/5
f 859/4/5 854/4/5 858/4/5
f 868/6/5 861/6/5 860/6/5
f 869/6/5 861/6/5 868/6/5
f 870/5/5 863/5/5 862/5/5
f 871/5/5 863/5/5 870/5/5
f 872/6/5 865/6/5 864/6/5
f 873/6/5 865/6/5 872/6/5
f 874/6/5 867/6/5 866/6/5
f 875/6/5 867/6/5 874/6/5
f 884/6/5 877/6/5 876/6/5
f 885/6/5 877/6/5 884/6/5
f 886/6/5 879/6/5 878/6/5
f 887/6/5 879/6/5 886/6/5
f 888/6/5 881/6/5 880/6/5
f 889/6/5 881/6/5 888/6/5
f 890/6/5 883/6/5 882/6/5
f 891/6/5 883/6/5 890/6/5
f 898/6/5 893/6/5 892/6/5
f 899/6/5 893/6/5 898/6/5
f 900/6/5 895/6/5 894/6/5
f 901/6/5 895/6/5 900/6/5
f 904/3/5 897/3/5 896/3/5
f 905/3/5 897/3/5 904/3/5
f 906/6/5 903/6/5 902/6/5
f 907/6/5 903/6/5 906/6/5
f 910/8/5 909/8/5 908/8/5
f 911/8/5 909/8/5 910/8/5
f 914/3/5 913/3/5 912/3/5
f 915/3/5 913/3/5 914/3/5
f 921/6/5 917/6/5 916/6/5
f 922/5/5 918/5/5 917/5/5
f 922/6/5 917/6/5 921/6/5
f 923/5/5 918/5/5 922/5/5
f 924/6/5 920/6/5 919/6/5
f 925/6/5 920/6/5 924/6/5
f 928/5/5 927/5/5 926/5/5
f 929/5/5 927/5/5 928/5/5
f 941/6/5 931/6/5 930/6/5
f 941/7/5 932/7/5 931/7/5
f 942/5/5 933/5/5 932/5/5
f 942/7/5 932/7/5 941/7/5
f 942/5/5 934/5/5 933/5/5
f 943/6/5 935/6/5 934/6/5
f 943/5/5 934/5/5 942/5/5
f 944/5/5 936/5/5 935/5/5
f 944/6/5 935/6/5 943/6/5
f 945/6/5 937/6/5 936/6/5
f 945/5/5 936/5/5 944/5/5
f 946/5/5 938/5/5 937/5/5
f 946/6/5 937/6/5 945/6/5
f 947/6/5 939/6/5 938/6/5
f 947/5/5 938/5/5 946/5/5
f 947/6/5 940/6/5 939/6/5
f 948/6/5 940/6/5 947/6/5
f 949/6/5 941/6/5 930/6/5
f 956/6/5 940/6/5 948/6/5
f 957/6/5 949/6/5 930/6/5
f 958/7/5 950/7/5 949/7/5
f 958/6/5 949/6/5 957/6/5
f 959/5/5 951/5/5 950/5/5
f 959/7/5 950/7/5 958/7/5
f 960/5/5 951/5/5 959/5/5
f 961/6/5 952/6/5 951/6/5
f 961/5/5 951/5/5 960/5/5
f 962/5/5 953/5/5 952/5/5
f 962/6/5 952/6/5 961/6/5
f 963/6/5 954/6/5 953/6/5
f 963/5/5 953/5/5 962/5/5
f 964/5/5 955/5/5 954/5/5
f 964/6/5 954/6/5 963/6/5
f 965/6/5 956/6/5 955/6/5
f 965/5/5 955/5/5 964/5/5
f 966/6/5 956/6/5 965/6/5
f 967/6/5 940/6/5 956/6/5
f 967/6/5 956/6/5 966/6/5
f 968/6/5 940/6/5 967/6/5
f 971/5/5 970/5/5 969/5/5
f 972/5/5 970/5/5 971/5/5
f 979/6/5 977/6/5 976/6/5
f 980/6/5 979/6/5 978/6/5
f 981/6/5 977/6/5 979/6/5
f 981/6/5 979/6/5 980/6/5
f 982/6/5 974/6/5 973/6/5
f 982/6/5 975/6/5 974/6/5
f 983/6/5 975/6/5 982/6/5
f 984/6/5 975/6/5 983/6/5
f 985/6/5 977/6/5 981/6/5
f 986/6/5 977/6/5 985/6/5
f 991/8/5 990/8/5 989/8/5
f 992/8/5 990/8/5 991/8/5
f 995/9/5 988/9/5 987/9/5
f 996/9/5 988/9/5 995/9/5
f 997/8/5 994/8/5 993/8/5
f 998/8/5 994/8/5 997/8/5
f 1001/9/5 1000/9/5 999/9/5
f 1002/9/5 1000/9/5 1001/9/5
f 1008/9/5 1004/9/5 1003/9/5
f 1008/9/5 1007/9/5 1006/9/5
f 1008/9/5 1006/9/5 1005/9/5
f 1008/9/5 1005/9/5 1004/9/5
f 1009/9/5 1007/9/5 1008/9/5
f 1010/9/5 1007/9/5 1009/9/5
f 1011/9/5 1007/9/5 1010/9/5
f 1012/9/5 1007/9/5 1011/9/5
f 1013/4/6 1014/4/6 1018/4/6
f 1018/4/6 1014/4/6 1019/4/6
f 1015/4/6 1016/4/6 1020/4/6
f 1020/4/6 1016/4/6 1021/4/6
f 1017/4/6 1018/4/6 1023/4/6
f 1023/4/6 1018/4/6 1024/4/6
f 1021/4/6 1022/4/6 1027/4/6
f 1027/4/6 1022/4/6 1028/4/6
f 1024/4/6 1025/4/6 1029/4/6
f 1029/4/6 1025/4/6 1030/4/6
f 1026/4/6 1027/4/6 1031/4/6
f 1031/4/6 1027/4/6 1032/4/6
f 1033/6/6 1034/6/6 1035/6/6
f 1035/6/6 1034/6/6 1036/6/6
f 1037/8/6 1038/8/6 1039/8/6
f 1039/8/6 1038/8/6 1040/8/6
f 1041/2/6 1042/2/6 1046/2/6
f 1046/2/6 1042/2/6 1047/2/6
f 1043/4/6 1044/4/6 1048/4/6
f 1048/4/6 1044/4/6 1049/4/6
f 1045/3/6 1046/3/6 1050/3/6
f 1050/3/6 1046/3/6 1051/3/6
f 1052/3/6 1053/3/6 1054/3/6
f 1054/3/6 1053/3/6 1055/3/6
f 1055/2/6 1056/2/6 1059/2/6
f 1059/2/6 1056/2/6 1060/2/6
f 1057/4/6 1058/4/6 1061/4/6
f 1061/4/6 1058/4/6 1062/4/6
f 1063/6/6 1064/6/6 1072/6/6
f 1072/6/6 1064/6/6 1073/6/6
f 1064/5/6 1065/5/6 1074/5/6
f 1073/6/6 1064/6/6 1074/6/6
f 1065/6/6 1066/6/6 1075/6/6
f 1074/5/6 1065/5/6 1075/5/6
f 1075/6/6 1066/6/6 1076/6/6
f 1066/5/6 1067/5/6 1077/5/6
f 1076/6/6 1066/6/6 1077/6/6
f 1067/6/6 1068/6/6 1078/6/6
f 1077/5/6 1067/5/6 1078/5/6
f 1078/6/6 1068/6/6 1079/6/6
f 1079/6/6 1068/6/6 1080/6/6
f 1069/6/6 1070/6/6 1081/6/6
f 1081/6/6 1070/6/6 1082/6/6
f 1071/6/6 1072/6/6 1084/6/6
f 1084/6/6 1072/6/6 1085/6/6
f 1082/6/6 1083/6/6 1096/6/6
f 1096/6/6 1083/6/6 1097/6/6
f 1085/6/6 1086/6/6 1098/6/6
f 1086/6/6 1087/6/6 1098/6/6
f 1087/5/6 1088/5/6 1099/5/6
f 1098/6/6 1087/6/6 1099/6/6
f 1088/6/6 1089/6/6 1100/6/6
f 1099/5/6 1088/5/6 1100/5/6
f 1089/6/6 1090/6/6 1100/6/6
f 1090/5/6 1091/5/6 1101/5/6
f 1100/6/6 1090/6/6 1101/6/6
f 1092/6/6 1093/6/6 1102/6/6
f 1101/5/6 1091/5/6 1102/5/6
f 1091/6/6 1092/6/6 1102/6/6
f 1102/6/6 1093/6/6 1103/6/6
f 1094/5/6 1095/5/6 1104/5/6
f 1095/6/6 1096/6/6 1105/6/6
f 1104/5/6 1095/5/6 1105/5/6
f 1105/6/6 1096/6/6 1106/6/6
f 1107/6/6 1108/6/6 1111/6/6
f 1111/6/6 1108/6/6 1112/6/6
f 1109/6/6 1110/6/6 1113/6/6
f 1113/6/6 1110/6/6 1114/6/6
f 1115/5/6 1116/5/6 1119/5/6
f 1119/5/6 1116/5/6 1120/5/6
f 1117/6/6 1118/6/6 1122/6/6
f 1120/6/6 1121/6/6 1123/6/6
f 1117/6/6 1122/6/6 1124/6/6
f 1123/6/6 1121/6/6 1125/6/6
f 1117/6/6 1124/6/6 1126/6/6
f 1126/6/6 1124/6/6 1127/6/6
f 1125/6/6 1121/6/6 1129/6/6
f 1129/6/6 1121/6/6 1130/6/6
f 1128/5/6 1129/5/6 1131/5/6
f 1131/5/6 1129/5/6 1132/5/6
f 1133/7/6 1134/7/6 1135/7/6
f 1135/7/6 1134/7/6 1136/7/6
f 1137/7/6 1138/7/6 1139/7/6
f 1139/7/6 1138/7/6 1140/7/6
f 1141/7/6 1142/7/6 1146/7/6
f 1146/7/6 1142/7/6 1147/7/6
f 1143/6/6 1144/6/6 1148/6/6
f 1148/6/6 1144/6/6 1149/6/6
f 1145/8/6 1146/8/6 1150/8/6
f 1150/8/6 1146/8/6 1151/8/6
f 1151/7/6 1152/7/6 1155/7/6
f 1155/7/6 1152/7/6 1156/7/6
f 1153/6/6 1154/6/6 1157/6/6
f 1157/6/6 1154/6/6 1158/6/6
f 1159/7/6 1160/7/6 1164/7/6
f 1164/7/6 1160/7/6 1165/7/6
f 1161/7/6 1162/7/6 1166/7/6
f 1166/7/6 1162/7/6 1167/7/6
f 1163/8/6 1164/8/6 1169/8/6
f 1169/8/6 1164/8/6 1170/8/6
f 1167/8/6 1168/8/6 1173/8/6
f 1173/8/6 1168/8/6 1174/8/6
f 1170/7/6 1171/7/6 1175/7/6
f 1175/7/6 1171/7/6 1176/7/6
f 1172/7/6 1173/7/6 1177/7/6
f 1177/7/6 1173/7/6 1178/7/6
f 1179/7/6 1180/7/6 1182/7/6
f 1182/7/6 1180/7/6 1183/7/6
f 1181/7/6 1182/7/6 1185/7/6
f 1185/7/6 1182/7/6 1186/7/6
f 1183/7/6 1184/7/6 1187/7/6
f 1187/7/6 1184/7/6 1188/7/6
f 1186/7/6 1187/7/6 1189/7/6
f 1189/7/6 1187/7/6 1190/7/6
f 1191/7/6 1192/7/6 1193/7/6
f 1193/7/6 1192/7/6 1194/7/6
